HIERARCHY
ROOT joint_Root
{
	OFFSET 0.0 0.0 0.0
	CHANNELS 6 Xposition Yposition Zposition Zrotation Xrotation Yrotation 
	JOINT Hips
	{
		OFFSET 4.5925 91.4895 -427.239
		CHANNELS 6 Xposition Yposition Zposition Zrotation Xrotation Yrotation 
		JOINT Spine
		{
			OFFSET 15.7357 0.0 0.0
			CHANNELS 6 Xposition Yposition Zposition Zrotation Xrotation Yrotation 
			JOINT Chest
			{
				OFFSET 8.98455 -0.406207 0.0
				CHANNELS 6 Xposition Yposition Zposition Zrotation Xrotation Yrotation 
				JOINT Neck
				{
					OFFSET 16.3773 0.0 0.0
					CHANNELS 6 Xposition Yposition Zposition Zrotation Xrotation Yrotation 
					JOINT Head
					{
						OFFSET 6.45672 0.0 0.0
						CHANNELS 6 Xposition Yposition Zposition Zrotation Xrotation Yrotation 
						End Site
						{
							OFFSET 0.0 0.0 0.0
						}
					}
				}
				JOINT Shoulder_L
				{
					OFFSET 12.9942 -0.242716 4.98039
					CHANNELS 6 Xposition Yposition Zposition Zrotation Xrotation Yrotation 
					JOINT UpperArm_L
					{
						OFFSET 5.34809 0.0 0.0
						CHANNELS 6 Xposition Yposition Zposition Zrotation Xrotation Yrotation 
						JOINT LowerArm_L
						{
							OFFSET 24.3286 1.87007e-05 0.0
							CHANNELS 6 Xposition Yposition Zposition Zrotation Xrotation Yrotation 
							JOINT Hand_L
							{
								OFFSET 22.2916 0.0 0.0
								CHANNELS 6 Xposition Yposition Zposition Zrotation Xrotation Yrotation 
								End Site
								{
									OFFSET 0.0 0.0 0.0
								}
							}
						}
					}
				}
				JOINT Shoulder_R
				{
					OFFSET 12.9945 -0.242716 -4.98039
					CHANNELS 6 Xposition Yposition Zposition Zrotation Xrotation Yrotation 
					JOINT UpperArm_R
					{
						OFFSET -5.34813 0.0 0.0
						CHANNELS 6 Xposition Yposition Zposition Zrotation Xrotation Yrotation 
						JOINT LowerArm_R
						{
							OFFSET -24.3289 0.000322201 0.0
							CHANNELS 6 Xposition Yposition Zposition Zrotation Xrotation Yrotation 
							JOINT Hand_R
							{
								OFFSET -22.2915 -0.000108084 0.0
								CHANNELS 6 Xposition Yposition Zposition Zrotation Xrotation Yrotation 
								End Site
								{
									OFFSET 0.0 0.0 0.0
								}
							}
						}
					}
				}
			}
		}
		JOINT UpperLeg_L
		{
			OFFSET -2.19248 -6.46944 0.0
			CHANNELS 6 Xposition Yposition Zposition Zrotation Xrotation Yrotation 
			JOINT LowerLeg_L
			{
				OFFSET 39.0811 0.0 -1.23785e-05
				CHANNELS 6 Xposition Yposition Zposition Zrotation Xrotation Yrotation 
				JOINT Foot_L
				{
					OFFSET 40.9854 0.0 -1.26872e-05
					CHANNELS 6 Xposition Yposition Zposition Zrotation Xrotation Yrotation 
					JOINT Toes_L
					{
						OFFSET 11.7543 0.0 0.0
						CHANNELS 6 Xposition Yposition Zposition Zrotation Xrotation Yrotation 
						End Site
						{
							OFFSET 0.0 0.0 0.0
						}
					}
				}
			}
		}
		JOINT UpperLeg_R
		{
			OFFSET -2.19251 6.46944 0.0
			CHANNELS 6 Xposition Yposition Zposition Zrotation Xrotation Yrotation 
			JOINT LowerLeg_R
			{
				OFFSET -39.0811 -0.00228153 -0.0401928
				CHANNELS 6 Xposition Yposition Zposition Zrotation Xrotation Yrotation 
				JOINT Foot_R
				{
					OFFSET -40.9854 0.0 0.0
					CHANNELS 6 Xposition Yposition Zposition Zrotation Xrotation Yrotation 
					JOINT Toes_R
					{
						OFFSET -11.7543 0.0 0.0
						CHANNELS 6 Xposition Yposition Zposition Zrotation Xrotation Yrotation 
						End Site
						{
							OFFSET 0.0 0.0 0.0
						}
					}
				}
			}
		}
	}
}
MOTION
Frames:	4
Frame Time:	0.0333333
0.000000 0.000000 0.000000 0.000000 0.000000 -0.000000 -1.391030 92.131900 2.107570 88.311000 -2.367430 2.223470 15.735700 0.000005 -0.000001 66.659800 88.303600 -66.486100 8.984550 -0.406207 -0.000000 -4.649420 -1.361820 0.292414 16.377300 -0.000001 -0.000001 1.834890 -2.508610 2.455370 6.456720 -0.000001 -0.000000 -3.830260 -0.717547 2.354750 12.994200 -0.242716 4.980390 -83.627300 -11.778700 -61.315700 5.348090 -0.000007 -0.000001 -66.934600 -64.240300 -107.219000 24.328600 0.000019 0.000005 3.492160 3.102530 -48.429800 22.291600 -0.000001 0.000005 14.725300 5.339570 -1.066550 12.994500 -0.242716 -4.980390 95.042700 -12.013900 -67.026500 -5.348130 -0.000001 -0.000004 -42.844800 -68.230800 -87.294000 -24.328900 0.000322 -0.000009 -7.395620 -8.796240 -40.320200 -22.291500 -0.000108 -0.000004 19.796100 5.537230 -8.117110 -2.192480 -6.469440 -0.000000 -174.039000 -12.464400 -2.311920 39.081100 -0.000007 -0.000012 -0.126621 0.311628 22.113100 40.985400 -0.000006 -0.000013 -0.558347 7.635350 -67.298700 11.754300 -0.000000 0.000003 -0.000137 -0.001344 -16.628800 -2.192510 6.469440 -0.000001 177.683000 22.402000 178.594000 -39.081100 -0.002282 -0.040193 0.008285 -0.012696 21.362600 -40.985400 0.000008 0.000006 6.554840 15.439800 -68.007400 -11.754300 -0.000006 -0.000006 -0.001799 -0.026171 -17.637300
0.000000 0.000000 0.000000 0.000000 0.000000 -0.000000 -1.442660 92.130900 2.116730 88.273900 -2.259320 2.236150 15.735700 0.000005 -0.000001 67.146800 88.262700 -66.979300 8.984550 -0.406207 -0.000000 -4.562910 -1.366250 0.280769 16.377300 -0.000001 -0.000001 1.987640 -2.545970 2.516350 6.456720 -0.000001 -0.000000 -3.744360 -0.673217 2.361280 12.994200 -0.242716 4.980390 -83.618400 -11.723800 -61.170500 5.348090 -0.000007 -0.000001 -66.764700 -64.306400 -107.548000 24.328600 0.000019 0.000005 3.729140 3.191870 -49.492200 22.291600 -0.000001 0.000005 14.844800 5.339700 -1.070420 12.994500 -0.242716 -4.980390 95.081800 -12.022900 -66.881500 -5.348130 -0.000001 -0.000004 -41.409000 -68.443700 -86.431300 -24.328900 0.000322 -0.000009 -7.051390 -8.333230 -40.475800 -22.291500 -0.000108 -0.000004 19.715000 5.527480 -7.684750 -2.192480 -6.469440 -0.000000 -173.976000 -12.340500 -2.329470 39.081100 -0.000007 -0.000012 -0.125600 0.308657 22.142800 40.985400 -0.000006 -0.000013 -0.597578 7.611010 -67.300500 11.754300 -0.000000 0.000003 -0.000110 -0.001112 -16.620100 -2.192510 6.469440 -0.000001 177.733000 22.526200 178.636000 -39.081100 -0.002282 -0.040193 0.008464 -0.013160 21.355500 -40.985400 0.000008 0.000006 6.604450 15.446600 -68.010800 -11.754300 -0.000006 -0.000006 -0.001911 -0.027597 -17.695300
0.000000 0.000000 0.000000 0.000000 0.000000 -0.000000 -1.503220 92.136200 2.151360 88.267200 -2.054780 2.294560 15.735700 0.000005 -0.000001 67.771300 88.199800 -67.632000 8.984550 -0.406207 -0.000000 -4.432160 -1.375770 0.225382 16.377300 -0.000001 -0.000001 2.126220 -2.562950 2.549790 6.456720 -0.000001 -0.000000 -3.705040 -0.703913 2.431030 12.994200 -0.242716 4.980390 -83.663100 -11.607400 -61.103800 5.348090 -0.000007 -0.000001 -65.819600 -64.427100 -106.539000 24.328600 0.000019 0.000005 3.994300 3.167830 -51.641600 22.291600 -0.000001 0.000005 14.824100 5.341360 -1.119480 12.994500 -0.242716 -4.980390 95.035400 -11.853900 -66.783400 -5.348130 -0.000001 -0.000004 -39.576500 -68.420500 -84.401400 -24.328900 0.000322 -0.000009 -6.762810 -7.621880 -41.795400 -22.291500 -0.000108 -0.000004 19.528000 5.518030 -7.277180 -2.192480 -6.469440 -0.000000 -173.925000 -12.149800 -2.251790 39.081100 -0.000007 -0.000012 -0.124712 0.307409 22.081800 40.985400 -0.000006 -0.000013 -0.635113 7.648990 -67.269900 11.754300 -0.000000 0.000003 -0.000147 -0.001431 -16.632000 -2.192510 6.469440 -0.000001 177.718000 22.724200 178.861000 -39.081100 -0.002282 -0.040193 0.007959 -0.011977 21.173600 -40.985400 0.000008 0.000006 6.609020 15.480900 -68.043100 -11.754300 -0.000006 -0.000006 -0.001603 -0.023628 -17.533900
0.000000 0.000000 0.000000 0.000000 0.000000 -0.000000 -1.559400 92.145900 2.163350 88.226900 -1.825080 2.339540 15.735700 0.000005 -0.000001 68.445400 88.116400 -68.329900 8.984550 -0.406207 -0.000000 -4.261500 -1.395110 0.179301 16.377300 -0.000001 -0.000001 2.275450 -2.570670 2.551660 6.456720 -0.000001 -0.000000 -3.787300 -0.766843 2.482680 12.994200 -0.242716 4.980390 -83.765600 -11.388600 -61.047100 5.348090 -0.000007 -0.000001 -64.146300 -64.411000 -103.986000 24.328600 0.000019 0.000005 3.981400 2.755300 -55.370700 22.291600 -0.000001 0.000005 15.039300 5.340770 -1.102080 12.994500 -0.242716 -4.980390 94.929800 -11.542800 -66.681200 -5.348130 -0.000001 -0.000004 -38.183900 -67.994800 -81.882800 -24.328900 0.000322 -0.000009 -6.544750 -6.675350 -44.620400 -22.291500 -0.000108 -0.000004 19.530800 5.508150 -6.865480 -2.192480 -6.469440 -0.000000 -173.844000 -11.920600 -2.204830 39.081100 -0.000007 -0.000012 -0.125954 0.311330 22.026700 40.985400 -0.000006 -0.000013 -0.677233 7.675690 -67.230700 11.754300 -0.000000 0.000003 -0.000120 -0.001201 -16.623400 -2.192510 6.469440 -0.000001 177.754000 23.008800 179.059000 -39.081100 -0.002282 -0.040193 0.007933 -0.012028 20.982700 -40.985400 0.000008 0.000006 6.692230 15.484200 -68.058900 -11.754300 -0.000006 -0.000006 -0.001830 -0.026573 -17.653600
